<svg width="64" height="64" viewBox="0 0 64 64" fill="none" xmlns="http://www.w3.org/2000/svg">
<path d="M52.2534 48.6145H8L14.4631 23.6924H15.7674M31.676 23.6924H49.5369L56 48.6145" stroke="#0E3465" stroke-width="2" stroke-linecap="round" stroke-linejoin="round"/>
<path d="M51.257 30.3301L47.0701 31.6842H47.0618M43.9548 32.6894L30.3141 37.0923L27.1905 38.0975L9.22999 43.896H9.22168M30.555 40.8971L15.8593 45.6406M33.662 39.8919L47.311 35.489L49.4875 34.7828M36.6111 45.9479L30.555 40.8971M44.1293 48.6146L33.662 39.8919" stroke="#0E3465" stroke-width="2" stroke-linecap="round" stroke-linejoin="round"/>
<path d="M47.0689 31.6841H47.0606L40.5974 26.2926M43.9536 32.6893L33.1624 23.6924" stroke="#0E3465" stroke-width="2" stroke-linecap="round" stroke-linejoin="round"/>
<path d="M23.6931 26.4668C26.7533 26.4668 29.2341 23.986 29.2341 20.9258C29.2341 17.8656 26.7533 15.3848 23.6931 15.3848C20.6329 15.3848 18.1521 17.8656 18.1521 20.9258C18.1521 23.986 20.6329 26.4668 23.6931 26.4668Z" stroke="#0E3465" stroke-width="2" stroke-linecap="round" stroke-linejoin="round"/>
<path d="M24.2663 17.9268C24.7447 18.0208 25.1938 18.2274 25.5765 18.5293C25.9593 18.8311 26.2648 19.2198 26.4678 19.663M23.6931 26.4584V32.9216" stroke="#0E3465" stroke-width="2" stroke-linecap="round" stroke-linejoin="round"/>
</svg>
